<svg width="60" height="55" viewBox="0 0 60 55" fill="none" xmlns="http://www.w3.org/2000/svg">
<path d="M47.5 10H42.5V7.5C42.5 5.51088 41.7098 3.60322 40.3033 2.1967C38.8968 0.790176 36.9891 0 35 0H7.5C5.51088 0 3.60322 0.790176 2.1967 2.1967C0.790176 3.60322 0 5.51088 0 7.5L0 45H5.1025C5.03818 45.4136 5.00392 45.8314 5 46.25C5 48.5706 5.92187 50.7962 7.56282 52.4372C9.20376 54.0781 11.4294 55 13.75 55C16.0706 55 18.2962 54.0781 19.9372 52.4372C21.5781 50.7962 22.5 48.5706 22.5 46.25C22.4961 45.8314 22.4618 45.4136 22.3975 45H37.6025C37.5382 45.4136 37.5039 45.8314 37.5 46.25C37.5 48.5706 38.4219 50.7962 40.0628 52.4372C41.7038 54.0781 43.9294 55 46.25 55C48.5706 55 50.7962 54.0781 52.4372 52.4372C54.0781 50.7962 55 48.5706 55 46.25C54.9961 45.8314 54.9618 45.4136 54.8975 45H60V22.5C59.996 19.186 58.6778 16.0089 56.3345 13.6656C53.9911 11.3222 50.814 10.004 47.5 10ZM47.5 15C49.4891 15 51.3968 15.7902 52.8033 17.1967C54.2098 18.6032 55 20.5109 55 22.5V25H42.5V15H47.5ZM17.5 46.25C17.5 47.2446 17.1049 48.1984 16.4017 48.9017C15.6984 49.6049 14.7446 50 13.75 50C12.7554 50 11.8016 49.6049 11.0983 48.9017C10.3951 48.1984 10 47.2446 10 46.25C10.0015 45.8227 10.0803 45.3993 10.2325 45H17.2675C17.4197 45.3993 17.4985 45.8227 17.5 46.25ZM37.5 40H5V7.5C5 6.83696 5.26339 6.20107 5.73223 5.73223C6.20107 5.26339 6.83696 5 7.5 5H35C35.663 5 36.2989 5.26339 36.7678 5.73223C37.2366 6.20107 37.5 6.83696 37.5 7.5V40ZM50 46.25C50 47.2446 49.6049 48.1984 48.9016 48.9017C48.1984 49.6049 47.2446 50 46.25 50C45.2554 50 44.3016 49.6049 43.5984 48.9017C42.8951 48.1984 42.5 47.2446 42.5 46.25C42.5011 45.8227 42.5799 45.3991 42.7325 45H49.7675C49.9201 45.3991 49.9989 45.8227 50 46.25ZM42.5 40V30H55V40H42.5Z" fill="#804B37"/>
</svg>
