<svg width="70" height="58" viewBox="0 0 70 58" fill="none" xmlns="http://www.w3.org/2000/svg">
<path d="M66.4008 6.31741C65.3351 5.87346 64.1613 5.75676 63.0289 5.98219C61.8966 6.20761 60.857 6.76496 60.0425 7.58325L52.5 15.1257L39.1242 1.74991C38.0303 0.656332 36.5468 0.0419922 35 0.0419922C33.4532 0.0419922 31.9697 0.656332 30.8758 1.74991L17.5 15.1257L9.9575 7.58325C9.1417 6.76769 8.10241 6.21232 6.97102 5.98734C5.83963 5.76237 4.66693 5.87788 3.60118 6.31929C2.53543 6.7607 1.62448 7.50818 0.983491 8.46724C0.342499 9.4263 0.000246309 10.5539 0 11.7074L0 42.5832C0.00463125 46.4496 1.54257 50.1562 4.27647 52.8901C7.01038 55.624 10.717 57.1619 14.5833 57.1666H55.4167C59.283 57.1619 62.9896 55.624 65.7235 52.8901C68.4574 50.1562 69.9954 46.4496 70 42.5832V11.7074C70.0003 10.5538 69.6585 9.42596 69.0179 8.46656C68.3772 7.50716 67.4665 6.75926 66.4008 6.31741ZM64.1667 42.5832C64.1667 44.9039 63.2448 47.1295 61.6039 48.7704C59.9629 50.4114 57.7373 51.3332 55.4167 51.3332H14.5833C12.2627 51.3332 10.0371 50.4114 8.39615 48.7704C6.75521 47.1295 5.83333 44.9039 5.83333 42.5832V11.7074L15.4379 21.312C15.9849 21.8588 16.7266 22.166 17.5 22.166C18.2734 22.166 19.0151 21.8588 19.5621 21.312L35 5.87408L50.4379 21.312C50.9849 21.8588 51.7266 22.166 52.5 22.166C53.2734 22.166 54.0151 21.8588 54.5621 21.312L64.1667 11.7074V42.5832Z" fill="#9F6B3F"/>
</svg>
