<svg width="21" height="24" viewBox="0 0 21 24" fill="none" xmlns="http://www.w3.org/2000/svg">
<path d="M20.9295 20.4449L17.9341 9.01448C17.7782 8.42013 17.2598 8.00811 16.6679 8.00811H14.1967C14.3432 7.61488 14.4379 7.19738 14.4379 6.75602C14.4379 4.68147 12.6751 2.99976 10.5004 2.99976C8.32576 2.99976 6.5629 4.68147 6.5629 6.75602C6.5629 7.19738 6.65723 7.61488 6.80407 8.00811H4.33287C3.74101 8.00811 3.22216 8.42052 3.06671 9.01448L0.0705128 20.4449C-0.271148 21.7482 0.671804 23.0328 1.96995 23.0328H19.0305C20.3282 23.0328 21.2711 21.7482 20.9295 20.4449ZM10.5 8.00772C9.77648 8.00772 9.1875 7.44584 9.1875 6.75563C9.1875 6.06542 9.77648 5.50354 10.5 5.50354C11.2235 5.50354 11.8125 6.06542 11.8125 6.75563C11.8125 7.44584 11.2235 8.00772 10.5 8.00772Z" fill="#804B37"/>
</svg>
