<svg width="28" height="22" viewBox="0 0 28 22" fill="none" xmlns="http://www.w3.org/2000/svg">
<path d="M13 19.5V17M16 19.5V17.5V15.5M19 19.5V17.5M22 19.5V16M25 19.5V15.5M10 19.5V17.5" stroke="#804B37" stroke-linecap="round" stroke-linejoin="round"/>
<path d="M12.5 12.9231H27L27 20.4615H11.239C3.10473 20.4615 1.49165 19.8846 2 7.5" stroke="#804B37" stroke-width="2" stroke-linecap="round" stroke-linejoin="round"/>
<path d="M20 7C20 8.51712 19.1228 9.99286 17.4976 11.1305C15.8755 12.266 13.5814 13 11 13C8.41859 13 6.12446 12.266 4.50239 11.1305C2.87717 9.99286 2 8.51712 2 7C2 5.48288 2.87717 4.00714 4.50239 2.86948C6.12446 1.73404 8.41859 1 11 1C13.5814 1 15.8755 1.73404 17.4976 2.86948C19.1228 4.00714 20 5.48288 20 7Z" stroke="#804B37" stroke-width="2" stroke-linecap="round" stroke-linejoin="round"/>
<path d="M14.25 7C14.25 7.53943 13.9602 8.08498 13.3784 8.52132C12.7964 8.95783 11.958 9.25 11 9.25C10.042 9.25 9.20359 8.95783 8.62157 8.52132C8.03978 8.08498 7.75 7.53943 7.75 7C7.75 6.46057 8.03978 5.91502 8.62157 5.47868C9.20359 5.04217 10.042 4.75 11 4.75C11.958 4.75 12.7964 5.04217 13.3784 5.47868C13.9602 5.91502 14.25 6.46057 14.25 7Z" stroke="#804B37" stroke-width="1.5"/>
<path d="M20 7V12" stroke="#804B37" stroke-width="1.3" stroke-linecap="round" stroke-linejoin="round"/>
<path d="M20.5 6.5V12" stroke="#804B37" stroke-width="0.96" stroke-linecap="round" stroke-linejoin="round"/>
</svg>
