<svg width="60" height="60" viewBox="0 0 60 60" fill="none" xmlns="http://www.w3.org/2000/svg">
<path d="M21.417 20.5212C21.6617 20.6678 21.9432 20.7044 22.2613 20.6311C22.5795 20.5578 22.812 20.399 22.9588 20.1547L28.9056 10.3339L24.574 3.15147C23.9866 2.17427 23.1423 1.68567 22.0411 1.68567C20.9398 1.68567 20.0955 2.17427 19.5082 3.15147L12.9006 14.145C12.7537 14.3893 12.717 14.6702 12.7904 14.9878C12.8638 15.3054 13.0229 15.5375 13.2676 15.684L21.417 20.5212ZM50.7841 41.0423L44.8373 31.1482C44.6905 30.9039 44.6538 30.623 44.7272 30.3054C44.8006 29.9878 44.9597 29.7557 45.2044 29.6091L53.5006 24.8453C53.7453 24.6987 54.0268 24.6743 54.3449 24.772C54.663 24.8697 54.8955 25.0407 55.0424 25.285L59.1538 32.1743C59.6922 33.0049 59.9736 33.9454 59.9981 34.9959C60.0225 36.0464 59.8145 36.987 59.374 37.8176C58.8846 38.7948 58.1626 39.5765 57.2082 40.1629C56.2538 40.7492 55.2137 41.0423 54.0879 41.0423H50.7841ZM40.4322 59.658L31.4018 50.6433C31.1571 50.399 31.0347 50.1303 31.0347 49.8371C31.0347 49.544 31.1571 49.2752 31.4018 49.0309L40.4322 40.0163C40.7748 39.6743 41.1786 39.5888 41.6436 39.7598C42.1086 39.9308 42.3411 40.2606 42.3411 40.7492V43.9739H56.2905L52.0322 52.4756C51.4938 53.4528 50.7597 54.2345 49.8297 54.8208C48.8997 55.4072 47.8719 55.7003 46.7462 55.7003H42.3411V58.9251C42.3411 59.4137 42.1086 59.7435 41.6436 59.9145C41.1786 60.0855 40.7748 60 40.4322 59.658ZM13.9284 55.7003C12.9495 55.7003 12.0562 55.4438 11.2487 54.9308C10.4411 54.4178 9.84148 53.7459 9.44992 52.9153C9.05836 52.1335 8.87481 51.3151 8.89929 50.4601C8.92376 49.605 9.15625 48.8111 9.59675 48.0782L12.093 43.9739H23.6196C23.9132 43.9739 24.1702 44.0839 24.3904 44.3037C24.6107 44.5236 24.7208 44.7801 24.7208 45.0733V54.601C24.7208 54.8941 24.6107 55.1507 24.3904 55.3705C24.1702 55.5904 23.9132 55.7003 23.6196 55.7003H13.9284ZM6.66004 47.3453L1.88789 37.8176C1.44738 36.9381 1.23936 35.9976 1.26383 34.9959C1.28831 33.9943 1.56974 33.0537 2.10814 32.1743L3.28282 30.1954L0.566366 28.5831C0.125859 28.3388 -0.0576854 27.9601 0.0157324 27.4471C0.0891502 26.934 0.370585 26.6287 0.860037 26.5309L13.2676 23.4528C13.5613 23.355 13.8427 23.3917 14.1119 23.5627C14.3811 23.7337 14.5647 23.9658 14.6626 24.259L17.7461 36.7182C17.7951 36.9625 17.7828 37.1824 17.7094 37.3778C17.636 37.5733 17.5136 37.7321 17.3423 37.8542C17.171 37.9764 16.9752 38.0497 16.755 38.0741C16.5347 38.0985 16.3267 38.0375 16.1309 37.8909L13.3411 36.2052L6.66004 47.3453ZM45.2044 21.987L32.7968 18.9088C32.3073 18.8111 32.0259 18.5057 31.9525 17.9927C31.8791 17.4796 32.0626 17.101 32.5031 16.8567L35.293 15.2443L26.1158 0H36.4677C37.4955 0 38.4622 0.256515 39.3677 0.769544C40.2732 1.28257 40.9951 1.97883 41.5335 2.85831L45.3512 9.23453L48.0677 7.54886C48.2635 7.40228 48.4715 7.34121 48.6917 7.36563C48.912 7.39007 49.1078 7.47557 49.2791 7.62215C49.4504 7.76873 49.5727 7.93974 49.6462 8.13518C49.7196 8.33062 49.7318 8.55049 49.6829 8.79479L46.5993 21.1808C46.5014 21.4739 46.3179 21.706 46.0487 21.877C45.7795 22.048 45.4981 22.0847 45.2044 21.987Z" fill="#804B37"/>
</svg>
